<svg width="112" height="105" viewBox="0 0 112 105" fill="none" xmlns="http://www.w3.org/2000/svg">
<g filter="url(#filter0_f_220_177)">
<ellipse cx="56.311" cy="51.4869" rx="32.4976" ry="29.4703" transform="rotate(1.81882 56.311 51.4869)" fill="#FFE448" fill-opacity="0.7"/>
</g>
<rect x="55.4456" y="22.3209" width="1.31905" height="8.7057" fill="white"/>
<rect x="41.7273" y="26.3821" width="1.31905" height="8.7057" transform="rotate(-28.6143 41.7273 26.3821)" fill="white"/>
<rect x="31.6013" y="36.8662" width="1.31905" height="8.7057" transform="rotate(-60.6951 31.6013 36.8662)" fill="white"/>
<rect x="69.613" y="25.7504" width="1.31905" height="8.7057" transform="rotate(30.4116 69.613 25.7504)" fill="white"/>
<rect x="79.9836" y="35.3114" width="1.31905" height="8.7057" transform="rotate(58.5181 79.9836 35.3114)" fill="white"/>
<rect x="83.9758" y="49.3103" width="1.31905" height="8.7057" transform="rotate(90.0335 83.9758 49.3103)" fill="white"/>
<rect x="80.5779" y="63.4875" width="1.31905" height="8.7057" transform="rotate(119.096 80.5779 63.4875)" fill="white"/>
<rect x="71.0273" y="73.9824" width="1.31905" height="8.7057" transform="rotate(148.465 71.0273 73.9824)" fill="white"/>
<rect x="42.7764" y="75.5127" width="1.39312" height="9.33097" transform="rotate(-150.427 42.7764 75.5127)" fill="white"/>
<rect x="27.7454" y="50.8862" width="1.39312" height="9.33097" transform="rotate(-89.0019 27.7454 50.8862)" fill="white"/>
<rect x="31.6165" y="65.1808" width="1.39312" height="9.33097" transform="rotate(-120.426 31.6165 65.1808)" fill="white"/>
<rect x="62.0105" y="25.2228" width="1.31905" height="6.59523" transform="rotate(13.6192 62.0105 25.2228)" fill="white"/>
<rect x="48.8501" y="25.2719" width="1.31905" height="6.59523" transform="rotate(-13.72 48.8501 25.2719)" fill="white"/>
<rect x="74.1907" y="31.1324" width="1.31905" height="6.59523" transform="rotate(44.4539 74.1907 31.1324)" fill="white"/>
<rect x="81.0796" y="42.9673" width="1.31905" height="6.59523" transform="rotate(76.4565 81.0796 42.9673)" fill="white"/>
<rect x="81.4165" y="56.2732" width="1.31905" height="6.59523" transform="rotate(106.077 81.4165 56.2732)" fill="white"/>
<rect x="74.6968" y="68.2156" width="1.31905" height="6.59523" transform="rotate(135.953 74.6968 68.2156)" fill="white"/>
<rect x="38.0063" y="68.7765" width="1.31905" height="6.59523" transform="rotate(-132.58 38.0063 68.7765)" fill="white"/>
<rect x="31.0464" y="57.7578" width="1.31905" height="6.59523" transform="rotate(-107.606 31.0464 57.7578)" fill="white"/>
<rect x="30.9111" y="44.1733" width="1.31905" height="6.59523" transform="rotate(-75.2054 30.9111 44.1733)" fill="white"/>
<rect x="37.5063" y="32.4572" width="1.31905" height="6.59523" transform="rotate(-43.1977 37.5063 32.4572)" fill="white"/>
<rect x="50.4636" y="68.7513" width="12.272" height="2.75793" rx="1.37897" fill="white"/>
<rect x="50.4636" y="72.5121" width="12.272" height="2.75793" rx="1.37897" fill="white"/>
<rect x="50.4636" y="76.2729" width="12.272" height="2.75793" rx="1.37897" fill="white"/>
<ellipse cx="56.6" cy="79.2815" rx="2.86346" ry="2.50721" fill="white"/>
<path d="M26.8447 90.2992L13.7432 70.5685C34.4674 71.6088 43.7076 75.243 57.3259 85.3957C70.3955 74.7091 79.866 71.3392 101.042 70.5685C93.831 78.3633 91.5949 82.6582 88.0744 90.2992C74.0318 91.3161 67.4684 93.7556 57.3259 100.34C47.1254 94.0173 40.3181 92.007 26.8447 90.2992Z" fill="#D4FF48"/>
<path d="M104.251 80.1419C104.251 80.1419 98.7696 79.4414 97.4327 79.4414C96.0958 79.4414 91.0239 86.6828 88.8766 92.4006C77.4258 92.6275 73.3973 94.4234 66.2885 97.5924L66.1494 97.6544C75.4552 95.9953 80.6461 95.0336 91.4167 96.1366C95.1805 89.1767 98.2484 86.4489 104.251 80.1419Z" fill="#80ED2C"/>
<path d="M10.0001 80.1419C10.0001 80.1419 15.4814 79.4414 16.8183 79.4414C18.1551 79.4414 23.2271 86.6828 25.3744 92.4006C36.8252 92.6275 40.8537 94.4234 47.9625 97.5924L48.1016 97.6544C38.7958 95.9953 33.6049 95.0336 22.8343 96.1366C19.0705 89.1767 16.0026 86.4489 10.0001 80.1419Z" fill="#80ED2C"/>
<ellipse cx="57.0468" cy="50.4071" rx="16.7519" ry="16.8658" fill="white"/>
<ellipse cx="55.8597" cy="49.7656" rx="15.5647" ry="15.6966" fill="#F56D1F"/>
<path d="M45.4821 48.1151C45.1643 48.1151 44.9001 48.0634 44.6894 47.9598C44.4788 47.8527 44.3128 47.6992 44.1914 47.4992C44.07 47.2993 43.9825 47.0583 43.9289 46.7762C43.8789 46.4941 43.8539 46.1764 43.8539 45.8229L44.9894 45.7158C44.9894 45.8871 44.9947 46.0532 45.0054 46.2138C45.0197 46.3709 45.0429 46.5138 45.0751 46.6423C45.1108 46.7673 45.1607 46.8672 45.225 46.9422C45.2929 47.0172 45.3785 47.0547 45.4821 47.0547C45.6535 47.0547 45.7749 46.9761 45.8463 46.819C45.9177 46.6584 45.9534 46.4656 45.9534 46.2406C45.9534 46.0157 45.8945 45.7818 45.7767 45.539C45.6588 45.2962 45.5178 45.0659 45.3536 44.8481C45.0751 44.4768 44.8305 44.1322 44.6198 43.8145C44.4127 43.4967 44.2503 43.1843 44.1324 42.8772C44.0182 42.5701 43.9611 42.2488 43.9611 41.9132C43.9611 41.649 43.995 41.4062 44.0628 41.1848C44.1307 40.9598 44.2288 40.7652 44.3574 40.601C44.4895 40.4332 44.6484 40.3029 44.834 40.21C45.0197 40.1172 45.2322 40.0708 45.4714 40.0708C45.7677 40.0708 46.0177 40.1208 46.2212 40.2207C46.4283 40.3207 46.5943 40.4635 46.7193 40.6492C46.8478 40.8349 46.9406 41.0562 46.9978 41.3133C47.0585 41.5668 47.0888 41.8489 47.0888 42.1595L45.9534 42.2666C45.9534 42.1345 45.9463 42.0024 45.932 41.8703C45.9213 41.7346 45.8998 41.6115 45.8677 41.5008C45.8356 41.3901 45.7892 41.3008 45.7285 41.233C45.6678 41.1651 45.5892 41.1312 45.4928 41.1312C45.3428 41.1312 45.2393 41.1955 45.1822 41.324C45.125 41.449 45.0965 41.6275 45.0965 41.8596C45.0965 42.1595 45.1768 42.4487 45.3375 42.7272C45.4982 43.0057 45.7142 43.3307 45.9855 43.702C46.3105 44.1412 46.5747 44.5446 46.7782 44.9124C46.9853 45.2802 47.0888 45.6872 47.0888 46.1335C47.0888 46.4156 47.0585 46.678 46.9978 46.9208C46.9371 47.16 46.8407 47.3689 46.7086 47.5474C46.58 47.726 46.414 47.8652 46.2105 47.9652C46.0105 48.0652 45.7677 48.1151 45.4821 48.1151ZM47.8696 48.0294V42.1702H48.9515V42.663C49.1264 42.5023 49.2853 42.3666 49.4281 42.2559C49.5745 42.1417 49.7155 42.0846 49.8512 42.0846C50.044 42.0846 50.1993 42.1506 50.3172 42.2827C50.435 42.4148 50.5225 42.5666 50.5796 42.738C50.7331 42.5809 50.892 42.4327 51.0563 42.2934C51.2241 42.1542 51.3937 42.0846 51.5651 42.0846C51.7436 42.0846 51.8936 42.1417 52.015 42.2559C52.1363 42.3702 52.2274 42.5148 52.2881 42.6898C52.3488 42.8647 52.3791 43.045 52.3791 43.2307V48.0294H51.3615V43.4449C51.3615 43.3307 51.333 43.2503 51.2759 43.2039C51.2223 43.1575 51.1545 43.1343 51.0723 43.1343C50.9902 43.1343 50.9117 43.1664 50.8367 43.2307C50.7617 43.2914 50.7046 43.3521 50.6653 43.4128V48.0294H49.6477V43.4449C49.6477 43.3307 49.6191 43.2503 49.562 43.2039C49.5085 43.1575 49.4406 43.1343 49.3585 43.1343C49.2764 43.1343 49.1978 43.1664 49.1228 43.2307C49.0479 43.2914 48.9907 43.3521 48.9515 43.4128V48.0294H47.8696ZM54.0737 48.1151C53.8238 48.1151 53.6078 47.9884 53.4257 47.7349C53.2436 47.4814 53.1525 47.094 53.1525 46.5727C53.1525 46.0692 53.2597 45.664 53.4739 45.3569C53.6917 45.0499 54.0166 44.7839 54.4486 44.5589C54.5843 44.4875 54.6986 44.4232 54.7914 44.3661C54.8842 44.309 54.9414 44.2554 54.9628 44.2054V43.5627C54.9628 43.4164 54.9449 43.2914 54.9092 43.1878C54.8771 43.0807 54.795 43.0272 54.6629 43.0272C54.5415 43.0272 54.4594 43.0843 54.4165 43.1986C54.3737 43.3092 54.3522 43.4485 54.3522 43.6163V43.8948H53.2704V43.6484C53.2704 43.3271 53.3329 43.0504 53.4578 42.8183C53.5864 42.5826 53.7595 42.4023 53.9773 42.2774C54.1987 42.1488 54.4486 42.0846 54.7271 42.0846C54.9949 42.0846 55.227 42.147 55.4234 42.272C55.6198 42.3934 55.7715 42.563 55.8786 42.7808C55.9893 42.995 56.0447 43.2414 56.0447 43.5199V47.0119C56.0447 47.2725 56.0518 47.476 56.0661 47.6224C56.0804 47.7652 56.0982 47.9009 56.1196 48.0294H55.0592C55.0128 47.9723 54.9842 47.8884 54.9735 47.7777C54.9664 47.667 54.9628 47.5938 54.9628 47.5581H54.8878C54.7986 47.7224 54.6843 47.8563 54.545 47.9598C54.4094 48.0634 54.2523 48.1151 54.0737 48.1151ZM54.5129 47.0547C54.6379 47.0547 54.7432 47.0119 54.8289 46.9262C54.9182 46.8405 54.9628 46.7476 54.9628 46.6477V45.2552C54.7021 45.3659 54.5111 45.5337 54.3897 45.7586C54.2719 45.98 54.213 46.2299 54.213 46.5084C54.213 46.6298 54.2362 46.7512 54.2826 46.8726C54.329 46.994 54.4058 47.0547 54.5129 47.0547ZM56.9748 48.0294V42.1702H58.0567V42.8236C58.0781 42.6808 58.1441 42.5541 58.2548 42.4434C58.3655 42.3327 58.4994 42.2452 58.6565 42.181C58.8172 42.1167 58.9779 42.0846 59.1385 42.0846V43.2842C59.0921 43.2664 59.0421 43.2557 58.9886 43.2521C58.9386 43.245 58.8886 43.2414 58.8386 43.2414C58.603 43.2414 58.4137 43.3057 58.2709 43.4342C58.1281 43.5627 58.0567 43.7377 58.0567 43.9591V48.0294H56.9748ZM61.4126 48.1151C61.0734 48.1151 60.8146 48.0402 60.6361 47.8902C60.4575 47.7402 60.3343 47.526 60.2665 47.2475C60.2022 46.969 60.1701 46.637 60.1701 46.2513V43.145H59.6238V42.1702H60.1701V40.7242H61.252V42.1702H61.9964V43.145H61.252V46.4067C61.252 46.6352 61.2859 46.8048 61.3537 46.9155C61.4216 47.0226 61.5323 47.0761 61.6858 47.0761C61.7536 47.0761 61.8125 47.0708 61.8625 47.0601C61.9161 47.0493 61.9589 47.0368 61.9911 47.0226V48.0134C61.9197 48.0419 61.8411 48.0652 61.7554 48.083C61.6733 48.1044 61.559 48.1151 61.4126 48.1151ZM49.4303 59.1151C49.1125 59.1151 48.8483 59.0634 48.6376 58.9598C48.427 58.8527 48.261 58.6992 48.1396 58.4992C48.0182 58.2993 47.9307 58.0583 47.8771 57.7762C47.8271 57.4941 47.8021 57.1764 47.8021 56.8229L48.9376 56.7158C48.9376 56.8871 48.9429 57.0532 48.9536 57.2138C48.9679 57.3709 48.9911 57.5138 49.0233 57.6423C49.059 57.7673 49.1089 57.8672 49.1732 57.9422C49.2411 58.0172 49.3267 58.0547 49.4303 58.0547C49.6017 58.0547 49.7231 57.9761 49.7945 57.819C49.8659 57.6584 49.9016 57.4656 49.9016 57.2406C49.9016 57.0157 49.8427 56.7818 49.7249 56.539C49.607 56.2962 49.466 56.0659 49.3018 55.8481C49.0233 55.4768 48.7787 55.1322 48.568 54.8145C48.3609 54.4967 48.1985 54.1843 48.0806 53.8772C47.9664 53.5701 47.9093 53.2488 47.9093 52.9132C47.9093 52.649 47.9432 52.4062 48.011 52.1848C48.0789 51.9598 48.177 51.7652 48.3056 51.601C48.4377 51.4332 48.5966 51.3029 48.7822 51.21C48.9679 51.1172 49.1804 51.0708 49.4196 51.0708C49.7159 51.0708 49.9659 51.1208 50.1694 51.2207C50.3765 51.3207 50.5425 51.4635 50.6675 51.6492C50.796 51.8349 50.8888 52.0562 50.946 52.3133C51.0067 52.5668 51.037 52.8489 51.037 53.1595L49.9016 53.2666C49.9016 53.1345 49.8945 53.0024 49.8802 52.8703C49.8695 52.7346 49.848 52.6115 49.8159 52.5008C49.7838 52.3901 49.7374 52.3008 49.6767 52.233C49.616 52.1651 49.5374 52.1312 49.441 52.1312C49.291 52.1312 49.1875 52.1955 49.1304 52.324C49.0732 52.449 49.0447 52.6275 49.0447 52.8596C49.0447 53.1595 49.125 53.4487 49.2857 53.7272C49.4464 54.0057 49.6624 54.3307 49.9337 54.702C50.2587 55.1412 50.5229 55.5446 50.7264 55.9124C50.9335 56.2802 51.037 56.6872 51.037 57.1335C51.037 57.4156 51.0067 57.678 50.946 57.9208C50.8853 58.16 50.7889 58.3689 50.6568 58.5474C50.5282 58.726 50.3622 58.8652 50.1587 58.9652C49.9587 59.0652 49.7159 59.1151 49.4303 59.1151ZM53.146 59.1098C52.6711 59.1098 52.3212 58.9616 52.0963 58.6653C51.8749 58.3689 51.7642 57.9565 51.7642 57.4281V54.7663C51.7642 54.2343 51.8749 53.8219 52.0963 53.5291C52.3212 53.2327 52.6711 53.0846 53.146 53.0846C53.6209 53.0846 53.9708 53.2327 54.1958 53.5291C54.4243 53.8254 54.5385 54.2378 54.5385 54.7663V55.2269H53.4567V54.627C53.4567 54.4628 53.4352 54.3253 53.3924 54.2146C53.3495 54.1039 53.2674 54.0486 53.146 54.0486C53.0246 54.0486 52.9443 54.1057 52.905 54.22C52.8657 54.3307 52.8461 54.4663 52.8461 54.627V57.5673C52.8461 57.728 52.8657 57.8655 52.905 57.9797C52.9443 58.0904 53.0246 58.1457 53.146 58.1457C53.2674 58.1457 53.3495 58.0904 53.3924 57.9797C53.4352 57.869 53.4567 57.7316 53.4567 57.5673V56.9675H54.5385V57.4281C54.5385 57.9565 54.4243 58.3689 54.1958 58.6653C53.9708 58.9616 53.6209 59.1098 53.146 59.1098ZM55.34 59.0294V51.1565H56.4219V53.5719C56.5147 53.4755 56.6522 53.3702 56.8343 53.2559C57.0164 53.1417 57.1896 53.0846 57.3538 53.0846C57.5323 53.0846 57.6823 53.1363 57.8037 53.2399C57.9251 53.3434 58.0161 53.4827 58.0768 53.6576C58.1375 53.829 58.1679 54.02 58.1679 54.2307V59.0294H57.086V54.4556C57.086 54.3485 57.061 54.2628 57.011 54.1986C56.9646 54.1307 56.9093 54.0968 56.845 54.0968C56.77 54.0968 56.6808 54.1396 56.5772 54.2253C56.4737 54.3075 56.4219 54.4003 56.4219 54.5038V59.0294H55.34ZM60.3632 59.1044C59.9312 59.1044 59.592 58.9598 59.3457 58.6706C59.0993 58.3778 58.9761 58.0083 58.9761 57.562V54.627C58.9761 54.1807 59.0993 53.8129 59.3457 53.5237C59.592 53.2309 59.9312 53.0846 60.3632 53.0846C60.7917 53.0846 61.1291 53.2309 61.3755 53.5237C61.6254 53.8129 61.7504 54.1807 61.7504 54.627V57.562C61.7504 58.0083 61.6254 58.3778 61.3755 58.6706C61.1291 58.9598 60.7917 59.1044 60.3632 59.1044ZM60.3632 58.1618C60.5025 58.1618 60.5989 58.1065 60.6525 57.9958C60.706 57.8815 60.7328 57.7369 60.7328 57.562V54.627C60.7328 54.4485 60.706 54.3039 60.6525 54.1932C60.5989 54.0825 60.5025 54.0272 60.3632 54.0272C60.224 54.0272 60.1276 54.0825 60.074 54.1932C60.0205 54.3039 59.9937 54.4485 59.9937 54.627V57.562C59.9937 57.7405 60.0205 57.8851 60.074 57.9958C60.1276 58.1065 60.224 58.1618 60.3632 58.1618ZM63.8855 59.1044C63.4535 59.1044 63.1143 58.9598 62.8679 58.6706C62.6215 58.3778 62.4984 58.0083 62.4984 57.562V54.627C62.4984 54.1807 62.6215 53.8129 62.8679 53.5237C63.1143 53.2309 63.4535 53.0846 63.8855 53.0846C64.314 53.0846 64.6514 53.2309 64.8977 53.5237C65.1477 53.8129 65.2726 54.1807 65.2726 54.627V57.562C65.2726 58.0083 65.1477 58.3778 64.8977 58.6706C64.6514 58.9598 64.314 59.1044 63.8855 59.1044ZM63.8855 58.1618C64.0247 58.1618 64.1211 58.1065 64.1747 57.9958C64.2283 57.8815 64.255 57.7369 64.255 57.562V54.627C64.255 54.4485 64.2283 54.3039 64.1747 54.1932C64.1211 54.0825 64.0247 54.0272 63.8855 54.0272C63.7462 54.0272 63.6498 54.0825 63.5963 54.1932C63.5427 54.3039 63.5159 54.4485 63.5159 54.627V57.562C63.5159 57.7405 63.5427 57.8851 63.5963 57.9958C63.6498 58.1065 63.7462 58.1618 63.8855 58.1618ZM66.1277 59.0294V51.1565H67.2096V59.0294H66.1277Z" fill="white"/>
<defs>
<filter id="filter0_f_220_177" x="0.66074" y="-1.14239" width="111.301" height="105.259" filterUnits="userSpaceOnUse" color-interpolation-filters="sRGB">
<feFlood flood-opacity="0" result="BackgroundImageFix"/>
<feBlend mode="normal" in="SourceGraphic" in2="BackgroundImageFix" result="shape"/>
<feGaussianBlur stdDeviation="11.5777" result="effect1_foregroundBlur_220_177"/>
</filter>
</defs>
</svg>
